<svg width="48" height="26" viewBox="0 0 48 26" fill="none" xmlns="http://www.w3.org/2000/svg">
<path d="M1 2C1.55225 2 2 1.55225 2 1C2 0.447754 1.55225 0 1 0C0.447754 0 0 0.447754 0 1C0 1.55225 0.447754 2 1 2Z" fill="#2764E0"/>
<path d="M5 2C5.55225 2 6 1.55225 6 1C6 0.447754 5.55225 0 5 0C4.44775 0 4 0.447754 4 1C4 1.55225 4.44775 2 5 2Z" fill="#2764E0"/>
<path d="M10 1C10 1.55225 9.55225 2 9 2C8.44775 2 8 1.55225 8 1C8 0.447754 8.44775 0 9 0C9.55225 0 10 0.447754 10 1Z" fill="#2764E0"/>
<path d="M13 2C13.5522 2 14 1.55225 14 1C14 0.447754 13.5522 0 13 0C12.4478 0 12 0.447754 12 1C12 1.55225 12.4478 2 13 2Z" fill="#2764E0"/>
<path d="M18 1C18 1.55225 17.5522 2 17 2C16.4478 2 16 1.55225 16 1C16 0.447754 16.4478 0 17 0C17.5522 0 18 0.447754 18 1Z" fill="#2764E0"/>
<path d="M21 2C21.5522 2 22 1.55225 22 1C22 0.447754 21.5522 0 21 0C20.4478 0 20 0.447754 20 1C20 1.55225 20.4478 2 21 2Z" fill="#2764E0"/>
<path d="M26 1C26 1.55225 25.5522 2 25 2C24.4478 2 24 1.55225 24 1C24 0.447754 24.4478 0 25 0C25.5522 0 26 0.447754 26 1Z" fill="#2764E0"/>
<path d="M29 2C29.5522 2 30 1.55225 30 1C30 0.447754 29.5522 0 29 0C28.4478 0 28 0.447754 28 1C28 1.55225 28.4478 2 29 2Z" fill="#2764E0"/>
<path d="M34 1C34 1.55225 33.5522 2 33 2C32.4478 2 32 1.55225 32 1C32 0.447754 32.4478 0 33 0C33.5522 0 34 0.447754 34 1Z" fill="#2764E0"/>
<path d="M37 2C37.5522 2 38 1.55225 38 1C38 0.447754 37.5522 0 37 0C36.4478 0 36 0.447754 36 1C36 1.55225 36.4478 2 37 2Z" fill="#2764E0"/>
<path d="M42 1C42 1.55225 41.5522 2 41 2C40.4478 2 40 1.55225 40 1C40 0.447754 40.4478 0 41 0C41.5522 0 42 0.447754 42 1Z" fill="#2764E0"/>
<path d="M45 2C45.5522 2 46 1.55225 46 1C46 0.447754 45.5522 0 45 0C44.4478 0 44 0.447754 44 1C44 1.55225 44.4478 2 45 2Z" fill="#2764E0"/>
<path d="M2 5C2 5.55225 1.55225 6 1 6C0.447754 6 0 5.55225 0 5C0 4.44775 0.447754 4 1 4C1.55225 4 2 4.44775 2 5Z" fill="#2764E0"/>
<path d="M5 6C5.55225 6 6 5.55225 6 5C6 4.44775 5.55225 4 5 4C4.44775 4 4 4.44775 4 5C4 5.55225 4.44775 6 5 6Z" fill="#2764E0"/>
<path d="M10 5C10 5.55225 9.55225 6 9 6C8.44775 6 8 5.55225 8 5C8 4.44775 8.44775 4 9 4C9.55225 4 10 4.44775 10 5Z" fill="#2764E0"/>
<path d="M13 6C13.5522 6 14 5.55225 14 5C14 4.44775 13.5522 4 13 4C12.4478 4 12 4.44775 12 5C12 5.55225 12.4478 6 13 6Z" fill="#2764E0"/>
<path d="M18 5C18 5.55225 17.5522 6 17 6C16.4478 6 16 5.55225 16 5C16 4.44775 16.4478 4 17 4C17.5522 4 18 4.44775 18 5Z" fill="#2764E0"/>
<path d="M21 6C21.5522 6 22 5.55225 22 5C22 4.44775 21.5522 4 21 4C20.4478 4 20 4.44775 20 5C20 5.55225 20.4478 6 21 6Z" fill="#2764E0"/>
<path d="M26 5C26 5.55225 25.5522 6 25 6C24.4478 6 24 5.55225 24 5C24 4.44775 24.4478 4 25 4C25.5522 4 26 4.44775 26 5Z" fill="#2764E0"/>
<path d="M29 6C29.5522 6 30 5.55225 30 5C30 4.44775 29.5522 4 29 4C28.4478 4 28 4.44775 28 5C28 5.55225 28.4478 6 29 6Z" fill="#2764E0"/>
<path d="M34 5C34 5.55225 33.5522 6 33 6C32.4478 6 32 5.55225 32 5C32 4.44775 32.4478 4 33 4C33.5522 4 34 4.44775 34 5Z" fill="#2764E0"/>
<path d="M37 6C37.5522 6 38 5.55225 38 5C38 4.44775 37.5522 4 37 4C36.4478 4 36 4.44775 36 5C36 5.55225 36.4478 6 37 6Z" fill="#2764E0"/>
<path d="M42 5C42 5.55225 41.5522 6 41 6C40.4478 6 40 5.55225 40 5C40 4.44775 40.4478 4 41 4C41.5522 4 42 4.44775 42 5Z" fill="#2764E0"/>
<path d="M45 6C45.5522 6 46 5.55225 46 5C46 4.44775 45.5522 4 45 4C44.4478 4 44 4.44775 44 5C44 5.55225 44.4478 6 45 6Z" fill="#2764E0"/>
<path d="M4 3C4 3.55225 3.55225 4 3 4C2.44775 4 2 3.55225 2 3C2 2.44775 2.44775 2 3 2C3.55225 2 4 2.44775 4 3Z" fill="#2764E0"/>
<path d="M7 4C7.55225 4 8 3.55225 8 3C8 2.44775 7.55225 2 7 2C6.44775 2 6 2.44775 6 3C6 3.55225 6.44775 4 7 4Z" fill="#2764E0"/>
<path d="M12 3C12 3.55225 11.5522 4 11 4C10.4478 4 10 3.55225 10 3C10 2.44775 10.4478 2 11 2C11.5522 2 12 2.44775 12 3Z" fill="#2764E0"/>
<path d="M15 4C15.5522 4 16 3.55225 16 3C16 2.44775 15.5522 2 15 2C14.4478 2 14 2.44775 14 3C14 3.55225 14.4478 4 15 4Z" fill="#2764E0"/>
<path d="M20 3C20 3.55225 19.5522 4 19 4C18.4478 4 18 3.55225 18 3C18 2.44775 18.4478 2 19 2C19.5522 2 20 2.44775 20 3Z" fill="#2764E0"/>
<path d="M23 4C23.5522 4 24 3.55225 24 3C24 2.44775 23.5522 2 23 2C22.4478 2 22 2.44775 22 3C22 3.55225 22.4478 4 23 4Z" fill="#2764E0"/>
<path d="M28 3C28 3.55225 27.5522 4 27 4C26.4478 4 26 3.55225 26 3C26 2.44775 26.4478 2 27 2C27.5522 2 28 2.44775 28 3Z" fill="#2764E0"/>
<path d="M31 4C31.5522 4 32 3.55225 32 3C32 2.44775 31.5522 2 31 2C30.4478 2 30 2.44775 30 3C30 3.55225 30.4478 4 31 4Z" fill="#2764E0"/>
<path d="M36 3C36 3.55225 35.5522 4 35 4C34.4478 4 34 3.55225 34 3C34 2.44775 34.4478 2 35 2C35.5522 2 36 2.44775 36 3Z" fill="#2764E0"/>
<path d="M39 4C39.5522 4 40 3.55225 40 3C40 2.44775 39.5522 2 39 2C38.4478 2 38 2.44775 38 3C38 3.55225 38.4478 4 39 4Z" fill="#2764E0"/>
<path d="M44 3C44 3.55225 43.5522 4 43 4C42.4478 4 42 3.55225 42 3C42 2.44775 42.4478 2 43 2C43.5522 2 44 2.44775 44 3Z" fill="#2764E0"/>
<path d="M47 4C47.5522 4 48 3.55225 48 3C48 2.44775 47.5522 2 47 2C46.4478 2 46 2.44775 46 3C46 3.55225 46.4478 4 47 4Z" fill="#2764E0"/>
<path d="M4 7C4 7.55225 3.55225 8 3 8C2.44775 8 2 7.55225 2 7C2 6.44775 2.44775 6 3 6C3.55225 6 4 6.44775 4 7Z" fill="#2764E0"/>
<path d="M7 8C7.55225 8 8 7.55225 8 7C8 6.44775 7.55225 6 7 6C6.44775 6 6 6.44775 6 7C6 7.55225 6.44775 8 7 8Z" fill="#2764E0"/>
<path d="M12 7C12 7.55225 11.5522 8 11 8C10.4478 8 10 7.55225 10 7C10 6.44775 10.4478 6 11 6C11.5522 6 12 6.44775 12 7Z" fill="#2764E0"/>
<path d="M15 8C15.5522 8 16 7.55225 16 7C16 6.44775 15.5522 6 15 6C14.4478 6 14 6.44775 14 7C14 7.55225 14.4478 8 15 8Z" fill="#2764E0"/>
<path d="M20 7C20 7.55225 19.5522 8 19 8C18.4478 8 18 7.55225 18 7C18 6.44775 18.4478 6 19 6C19.5522 6 20 6.44775 20 7Z" fill="#2764E0"/>
<path d="M23 8C23.5522 8 24 7.55225 24 7C24 6.44775 23.5522 6 23 6C22.4478 6 22 6.44775 22 7C22 7.55225 22.4478 8 23 8Z" fill="#2764E0"/>
<path d="M28 7C28 7.55225 27.5522 8 27 8C26.4478 8 26 7.55225 26 7C26 6.44775 26.4478 6 27 6C27.5522 6 28 6.44775 28 7Z" fill="#2764E0"/>
<path d="M31 8C31.5522 8 32 7.55225 32 7C32 6.44775 31.5522 6 31 6C30.4478 6 30 6.44775 30 7C30 7.55225 30.4478 8 31 8Z" fill="#2764E0"/>
<path d="M36 7C36 7.55225 35.5522 8 35 8C34.4478 8 34 7.55225 34 7C34 6.44775 34.4478 6 35 6C35.5522 6 36 6.44775 36 7Z" fill="#2764E0"/>
<path d="M39 8C39.5522 8 40 7.55225 40 7C40 6.44775 39.5522 6 39 6C38.4478 6 38 6.44775 38 7C38 7.55225 38.4478 8 39 8Z" fill="#2764E0"/>
<path d="M44 7C44 7.55225 43.5522 8 43 8C42.4478 8 42 7.55225 42 7C42 6.44775 42.4478 6 43 6C43.5522 6 44 6.44775 44 7Z" fill="#2764E0"/>
<path d="M47 8C47.5522 8 48 7.55225 48 7C48 6.44775 47.5522 6 47 6C46.4478 6 46 6.44775 46 7C46 7.55225 46.4478 8 47 8Z" fill="#2764E0"/>
<path d="M4 11C4 11.5522 3.55225 12 3 12C2.44775 12 2 11.5522 2 11C2 10.4478 2.44775 10 3 10C3.55225 10 4 10.4478 4 11Z" fill="#2764E0"/>
<path d="M7 12C7.55225 12 8 11.5522 8 11C8 10.4478 7.55225 10 7 10C6.44775 10 6 10.4478 6 11C6 11.5522 6.44775 12 7 12Z" fill="#2764E0"/>
<path d="M12 11C12 11.5522 11.5522 12 11 12C10.4478 12 10 11.5522 10 11C10 10.4478 10.4478 10 11 10C11.5522 10 12 10.4478 12 11Z" fill="#2764E0"/>
<path d="M15 12C15.5522 12 16 11.5522 16 11C16 10.4478 15.5522 10 15 10C14.4478 10 14 10.4478 14 11C14 11.5522 14.4478 12 15 12Z" fill="#2764E0"/>
<path d="M20 11C20 11.5522 19.5522 12 19 12C18.4478 12 18 11.5522 18 11C18 10.4478 18.4478 10 19 10C19.5522 10 20 10.4478 20 11Z" fill="#2764E0"/>
<path d="M23 12C23.5522 12 24 11.5522 24 11C24 10.4478 23.5522 10 23 10C22.4478 10 22 10.4478 22 11C22 11.5522 22.4478 12 23 12Z" fill="#2764E0"/>
<path d="M28 11C28 11.5522 27.5522 12 27 12C26.4478 12 26 11.5522 26 11C26 10.4478 26.4478 10 27 10C27.5522 10 28 10.4478 28 11Z" fill="#2764E0"/>
<path d="M31 12C31.5522 12 32 11.5522 32 11C32 10.4478 31.5522 10 31 10C30.4478 10 30 10.4478 30 11C30 11.5522 30.4478 12 31 12Z" fill="#2764E0"/>
<path d="M36 11C36 11.5522 35.5522 12 35 12C34.4478 12 34 11.5522 34 11C34 10.4478 34.4478 10 35 10C35.5522 10 36 10.4478 36 11Z" fill="#2764E0"/>
<path d="M39 12C39.5522 12 40 11.5522 40 11C40 10.4478 39.5522 10 39 10C38.4478 10 38 10.4478 38 11C38 11.5522 38.4478 12 39 12Z" fill="#2764E0"/>
<path d="M44 11C44 11.5522 43.5522 12 43 12C42.4478 12 42 11.5522 42 11C42 10.4478 42.4478 10 43 10C43.5522 10 44 10.4478 44 11Z" fill="#2764E0"/>
<path d="M47 12C47.5522 12 48 11.5522 48 11C48 10.4478 47.5522 10 47 10C46.4478 10 46 10.4478 46 11C46 11.5522 46.4478 12 47 12Z" fill="#2764E0"/>
<path d="M4 15C4 15.5522 3.55225 16 3 16C2.44775 16 2 15.5522 2 15C2 14.4478 2.44775 14 3 14C3.55225 14 4 14.4478 4 15Z" fill="#2764E0"/>
<path d="M7 16C7.55225 16 8 15.5522 8 15C8 14.4478 7.55225 14 7 14C6.44775 14 6 14.4478 6 15C6 15.5522 6.44775 16 7 16Z" fill="#2764E0"/>
<path d="M12 15C12 15.5522 11.5522 16 11 16C10.4478 16 10 15.5522 10 15C10 14.4478 10.4478 14 11 14C11.5522 14 12 14.4478 12 15Z" fill="#2764E0"/>
<path d="M15 16C15.5522 16 16 15.5522 16 15C16 14.4478 15.5522 14 15 14C14.4478 14 14 14.4478 14 15C14 15.5522 14.4478 16 15 16Z" fill="#2764E0"/>
<path d="M20 15C20 15.5522 19.5522 16 19 16C18.4478 16 18 15.5522 18 15C18 14.4478 18.4478 14 19 14C19.5522 14 20 14.4478 20 15Z" fill="#2764E0"/>
<path d="M23 16C23.5522 16 24 15.5522 24 15C24 14.4478 23.5522 14 23 14C22.4478 14 22 14.4478 22 15C22 15.5522 22.4478 16 23 16Z" fill="#2764E0"/>
<path d="M28 15C28 15.5522 27.5522 16 27 16C26.4478 16 26 15.5522 26 15C26 14.4478 26.4478 14 27 14C27.5522 14 28 14.4478 28 15Z" fill="#2764E0"/>
<path d="M31 16C31.5522 16 32 15.5522 32 15C32 14.4478 31.5522 14 31 14C30.4478 14 30 14.4478 30 15C30 15.5522 30.4478 16 31 16Z" fill="#2764E0"/>
<path d="M36 15C36 15.5522 35.5522 16 35 16C34.4478 16 34 15.5522 34 15C34 14.4478 34.4478 14 35 14C35.5522 14 36 14.4478 36 15Z" fill="#2764E0"/>
<path d="M39 16C39.5522 16 40 15.5522 40 15C40 14.4478 39.5522 14 39 14C38.4478 14 38 14.4478 38 15C38 15.5522 38.4478 16 39 16Z" fill="#2764E0"/>
<path d="M44 15C44 15.5522 43.5522 16 43 16C42.4478 16 42 15.5522 42 15C42 14.4478 42.4478 14 43 14C43.5522 14 44 14.4478 44 15Z" fill="#2764E0"/>
<path d="M47 16C47.5522 16 48 15.5522 48 15C48 14.4478 47.5522 14 47 14C46.4478 14 46 14.4478 46 15C46 15.5522 46.4478 16 47 16Z" fill="#2764E0"/>
<path d="M4 19C4 19.5522 3.55225 20 3 20C2.44775 20 2 19.5522 2 19C2 18.4478 2.44775 18 3 18C3.55225 18 4 18.4478 4 19Z" fill="#2764E0"/>
<path d="M7 20C7.55225 20 8 19.5522 8 19C8 18.4478 7.55225 18 7 18C6.44775 18 6 18.4478 6 19C6 19.5522 6.44775 20 7 20Z" fill="#2764E0"/>
<path d="M12 19C12 19.5522 11.5522 20 11 20C10.4478 20 10 19.5522 10 19C10 18.4478 10.4478 18 11 18C11.5522 18 12 18.4478 12 19Z" fill="#2764E0"/>
<path d="M15 20C15.5522 20 16 19.5522 16 19C16 18.4478 15.5522 18 15 18C14.4478 18 14 18.4478 14 19C14 19.5522 14.4478 20 15 20Z" fill="#2764E0"/>
<path d="M20 19C20 19.5522 19.5522 20 19 20C18.4478 20 18 19.5522 18 19C18 18.4478 18.4478 18 19 18C19.5522 18 20 18.4478 20 19Z" fill="#2764E0"/>
<path d="M23 20C23.5522 20 24 19.5522 24 19C24 18.4478 23.5522 18 23 18C22.4478 18 22 18.4478 22 19C22 19.5522 22.4478 20 23 20Z" fill="#2764E0"/>
<path d="M28 19C28 19.5522 27.5522 20 27 20C26.4478 20 26 19.5522 26 19C26 18.4478 26.4478 18 27 18C27.5522 18 28 18.4478 28 19Z" fill="#2764E0"/>
<path d="M31 20C31.5522 20 32 19.5522 32 19C32 18.4478 31.5522 18 31 18C30.4478 18 30 18.4478 30 19C30 19.5522 30.4478 20 31 20Z" fill="#2764E0"/>
<path d="M36 19C36 19.5522 35.5522 20 35 20C34.4478 20 34 19.5522 34 19C34 18.4478 34.4478 18 35 18C35.5522 18 36 18.4478 36 19Z" fill="#2764E0"/>
<path d="M39 20C39.5522 20 40 19.5522 40 19C40 18.4478 39.5522 18 39 18C38.4478 18 38 18.4478 38 19C38 19.5522 38.4478 20 39 20Z" fill="#2764E0"/>
<path d="M44 19C44 19.5522 43.5522 20 43 20C42.4478 20 42 19.5522 42 19C42 18.4478 42.4478 18 43 18C43.5522 18 44 18.4478 44 19Z" fill="#2764E0"/>
<path d="M47 20C47.5522 20 48 19.5522 48 19C48 18.4478 47.5522 18 47 18C46.4478 18 46 18.4478 46 19C46 19.5522 46.4478 20 47 20Z" fill="#2764E0"/>
<path d="M4 23C4 23.5522 3.55225 24 3 24C2.44775 24 2 23.5522 2 23C2 22.4478 2.44775 22 3 22C3.55225 22 4 22.4478 4 23Z" fill="#2764E0"/>
<path d="M7 24C7.55225 24 8 23.5522 8 23C8 22.4478 7.55225 22 7 22C6.44775 22 6 22.4478 6 23C6 23.5522 6.44775 24 7 24Z" fill="#2764E0"/>
<path d="M12 23C12 23.5522 11.5522 24 11 24C10.4478 24 10 23.5522 10 23C10 22.4478 10.4478 22 11 22C11.5522 22 12 22.4478 12 23Z" fill="#2764E0"/>
<path d="M15 24C15.5522 24 16 23.5522 16 23C16 22.4478 15.5522 22 15 22C14.4478 22 14 22.4478 14 23C14 23.5522 14.4478 24 15 24Z" fill="#2764E0"/>
<path d="M20 23C20 23.5522 19.5522 24 19 24C18.4478 24 18 23.5522 18 23C18 22.4478 18.4478 22 19 22C19.5522 22 20 22.4478 20 23Z" fill="#2764E0"/>
<path d="M23 24C23.5522 24 24 23.5522 24 23C24 22.4478 23.5522 22 23 22C22.4478 22 22 22.4478 22 23C22 23.5522 22.4478 24 23 24Z" fill="#2764E0"/>
<path d="M28 23C28 23.5522 27.5522 24 27 24C26.4478 24 26 23.5522 26 23C26 22.4478 26.4478 22 27 22C27.5522 22 28 22.4478 28 23Z" fill="#2764E0"/>
<path d="M31 24C31.5522 24 32 23.5522 32 23C32 22.4478 31.5522 22 31 22C30.4478 22 30 22.4478 30 23C30 23.5522 30.4478 24 31 24Z" fill="#2764E0"/>
<path d="M36 23C36 23.5522 35.5522 24 35 24C34.4478 24 34 23.5522 34 23C34 22.4478 34.4478 22 35 22C35.5522 22 36 22.4478 36 23Z" fill="#2764E0"/>
<path d="M39 24C39.5522 24 40 23.5522 40 23C40 22.4478 39.5522 22 39 22C38.4478 22 38 22.4478 38 23C38 23.5522 38.4478 24 39 24Z" fill="#2764E0"/>
<path d="M44 23C44 23.5522 43.5522 24 43 24C42.4478 24 42 23.5522 42 23C42 22.4478 42.4478 22 43 22C43.5522 22 44 22.4478 44 23Z" fill="#2764E0"/>
<path d="M47 24C47.5522 24 48 23.5522 48 23C48 22.4478 47.5522 22 47 22C46.4478 22 46 22.4478 46 23C46 23.5522 46.4478 24 47 24Z" fill="#2764E0"/>
<path d="M2 9C2 9.55225 1.55225 10 1 10C0.447754 10 0 9.55225 0 9C0 8.44775 0.447754 8 1 8C1.55225 8 2 8.44775 2 9Z" fill="#2764E0"/>
<path d="M5 10C5.55225 10 6 9.55225 6 9C6 8.44775 5.55225 8 5 8C4.44775 8 4 8.44775 4 9C4 9.55225 4.44775 10 5 10Z" fill="#2764E0"/>
<path d="M10 9C10 9.55225 9.55225 10 9 10C8.44775 10 8 9.55225 8 9C8 8.44775 8.44775 8 9 8C9.55225 8 10 8.44775 10 9Z" fill="#2764E0"/>
<path d="M13 10C13.5522 10 14 9.55225 14 9C14 8.44775 13.5522 8 13 8C12.4478 8 12 8.44775 12 9C12 9.55225 12.4478 10 13 10Z" fill="#2764E0"/>
<path d="M18 9C18 9.55225 17.5522 10 17 10C16.4478 10 16 9.55225 16 9C16 8.44775 16.4478 8 17 8C17.5522 8 18 8.44775 18 9Z" fill="#2764E0"/>
<path d="M21 10C21.5522 10 22 9.55225 22 9C22 8.44775 21.5522 8 21 8C20.4478 8 20 8.44775 20 9C20 9.55225 20.4478 10 21 10Z" fill="#2764E0"/>
<path d="M26 9C26 9.55225 25.5522 10 25 10C24.4478 10 24 9.55225 24 9C24 8.44775 24.4478 8 25 8C25.5522 8 26 8.44775 26 9Z" fill="#2764E0"/>
<path d="M29 10C29.5522 10 30 9.55225 30 9C30 8.44775 29.5522 8 29 8C28.4478 8 28 8.44775 28 9C28 9.55225 28.4478 10 29 10Z" fill="#2764E0"/>
<path d="M34 9C34 9.55225 33.5522 10 33 10C32.4478 10 32 9.55225 32 9C32 8.44775 32.4478 8 33 8C33.5522 8 34 8.44775 34 9Z" fill="#2764E0"/>
<path d="M37 10C37.5522 10 38 9.55225 38 9C38 8.44775 37.5522 8 37 8C36.4478 8 36 8.44775 36 9C36 9.55225 36.4478 10 37 10Z" fill="#2764E0"/>
<path d="M42 9C42 9.55225 41.5522 10 41 10C40.4478 10 40 9.55225 40 9C40 8.44775 40.4478 8 41 8C41.5522 8 42 8.44775 42 9Z" fill="#2764E0"/>
<path d="M45 10C45.5522 10 46 9.55225 46 9C46 8.44775 45.5522 8 45 8C44.4478 8 44 8.44775 44 9C44 9.55225 44.4478 10 45 10Z" fill="#2764E0"/>
<path d="M2 13C2 13.5522 1.55225 14 1 14C0.447754 14 0 13.5522 0 13C0 12.4478 0.447754 12 1 12C1.55225 12 2 12.4478 2 13Z" fill="#2764E0"/>
<path d="M5 14C5.55225 14 6 13.5522 6 13C6 12.4478 5.55225 12 5 12C4.44775 12 4 12.4478 4 13C4 13.5522 4.44775 14 5 14Z" fill="#2764E0"/>
<path d="M10 13C10 13.5522 9.55225 14 9 14C8.44775 14 8 13.5522 8 13C8 12.4478 8.44775 12 9 12C9.55225 12 10 12.4478 10 13Z" fill="#2764E0"/>
<path d="M13 14C13.5522 14 14 13.5522 14 13C14 12.4478 13.5522 12 13 12C12.4478 12 12 12.4478 12 13C12 13.5522 12.4478 14 13 14Z" fill="#2764E0"/>
<path d="M18 13C18 13.5522 17.5522 14 17 14C16.4478 14 16 13.5522 16 13C16 12.4478 16.4478 12 17 12C17.5522 12 18 12.4478 18 13Z" fill="#2764E0"/>
<path d="M21 14C21.5522 14 22 13.5522 22 13C22 12.4478 21.5522 12 21 12C20.4478 12 20 12.4478 20 13C20 13.5522 20.4478 14 21 14Z" fill="#2764E0"/>
<path d="M26 13C26 13.5522 25.5522 14 25 14C24.4478 14 24 13.5522 24 13C24 12.4478 24.4478 12 25 12C25.5522 12 26 12.4478 26 13Z" fill="#2764E0"/>
<path d="M29 14C29.5522 14 30 13.5522 30 13C30 12.4478 29.5522 12 29 12C28.4478 12 28 12.4478 28 13C28 13.5522 28.4478 14 29 14Z" fill="#2764E0"/>
<path d="M34 13C34 13.5522 33.5522 14 33 14C32.4478 14 32 13.5522 32 13C32 12.4478 32.4478 12 33 12C33.5522 12 34 12.4478 34 13Z" fill="#2764E0"/>
<path d="M37 14C37.5522 14 38 13.5522 38 13C38 12.4478 37.5522 12 37 12C36.4478 12 36 12.4478 36 13C36 13.5522 36.4478 14 37 14Z" fill="#2764E0"/>
<path d="M42 13C42 13.5522 41.5522 14 41 14C40.4478 14 40 13.5522 40 13C40 12.4478 40.4478 12 41 12C41.5522 12 42 12.4478 42 13Z" fill="#2764E0"/>
<path d="M45 14C45.5522 14 46 13.5522 46 13C46 12.4478 45.5522 12 45 12C44.4478 12 44 12.4478 44 13C44 13.5522 44.4478 14 45 14Z" fill="#2764E0"/>
<path d="M2 17C2 17.5522 1.55225 18 1 18C0.447754 18 0 17.5522 0 17C0 16.4478 0.447754 16 1 16C1.55225 16 2 16.4478 2 17Z" fill="#2764E0"/>
<path d="M5 18C5.55225 18 6 17.5522 6 17C6 16.4478 5.55225 16 5 16C4.44775 16 4 16.4478 4 17C4 17.5522 4.44775 18 5 18Z" fill="#2764E0"/>
<path d="M10 17C10 17.5522 9.55225 18 9 18C8.44775 18 8 17.5522 8 17C8 16.4478 8.44775 16 9 16C9.55225 16 10 16.4478 10 17Z" fill="#2764E0"/>
<path d="M13 18C13.5522 18 14 17.5522 14 17C14 16.4478 13.5522 16 13 16C12.4478 16 12 16.4478 12 17C12 17.5522 12.4478 18 13 18Z" fill="#2764E0"/>
<path d="M18 17C18 17.5522 17.5522 18 17 18C16.4478 18 16 17.5522 16 17C16 16.4478 16.4478 16 17 16C17.5522 16 18 16.4478 18 17Z" fill="#2764E0"/>
<path d="M21 18C21.5522 18 22 17.5522 22 17C22 16.4478 21.5522 16 21 16C20.4478 16 20 16.4478 20 17C20 17.5522 20.4478 18 21 18Z" fill="#2764E0"/>
<path d="M26 17C26 17.5522 25.5522 18 25 18C24.4478 18 24 17.5522 24 17C24 16.4478 24.4478 16 25 16C25.5522 16 26 16.4478 26 17Z" fill="#2764E0"/>
<path d="M29 18C29.5522 18 30 17.5522 30 17C30 16.4478 29.5522 16 29 16C28.4478 16 28 16.4478 28 17C28 17.5522 28.4478 18 29 18Z" fill="#2764E0"/>
<path d="M34 17C34 17.5522 33.5522 18 33 18C32.4478 18 32 17.5522 32 17C32 16.4478 32.4478 16 33 16C33.5522 16 34 16.4478 34 17Z" fill="#2764E0"/>
<path d="M37 18C37.5522 18 38 17.5522 38 17C38 16.4478 37.5522 16 37 16C36.4478 16 36 16.4478 36 17C36 17.5522 36.4478 18 37 18Z" fill="#2764E0"/>
<path d="M42 17C42 17.5522 41.5522 18 41 18C40.4478 18 40 17.5522 40 17C40 16.4478 40.4478 16 41 16C41.5522 16 42 16.4478 42 17Z" fill="#2764E0"/>
<path d="M45 18C45.5522 18 46 17.5522 46 17C46 16.4478 45.5522 16 45 16C44.4478 16 44 16.4478 44 17C44 17.5522 44.4478 18 45 18Z" fill="#2764E0"/>
<path d="M2 21C2 21.5522 1.55225 22 1 22C0.447754 22 0 21.5522 0 21C0 20.4478 0.447754 20 1 20C1.55225 20 2 20.4478 2 21Z" fill="#2764E0"/>
<path d="M5 22C5.55225 22 6 21.5522 6 21C6 20.4478 5.55225 20 5 20C4.44775 20 4 20.4478 4 21C4 21.5522 4.44775 22 5 22Z" fill="#2764E0"/>
<path d="M10 21C10 21.5522 9.55225 22 9 22C8.44775 22 8 21.5522 8 21C8 20.4478 8.44775 20 9 20C9.55225 20 10 20.4478 10 21Z" fill="#2764E0"/>
<path d="M13 22C13.5522 22 14 21.5522 14 21C14 20.4478 13.5522 20 13 20C12.4478 20 12 20.4478 12 21C12 21.5522 12.4478 22 13 22Z" fill="#2764E0"/>
<path d="M18 21C18 21.5522 17.5522 22 17 22C16.4478 22 16 21.5522 16 21C16 20.4478 16.4478 20 17 20C17.5522 20 18 20.4478 18 21Z" fill="#2764E0"/>
<path d="M21 22C21.5522 22 22 21.5522 22 21C22 20.4478 21.5522 20 21 20C20.4478 20 20 20.4478 20 21C20 21.5522 20.4478 22 21 22Z" fill="#2764E0"/>
<path d="M26 21C26 21.5522 25.5522 22 25 22C24.4478 22 24 21.5522 24 21C24 20.4478 24.4478 20 25 20C25.5522 20 26 20.4478 26 21Z" fill="#2764E0"/>
<path d="M29 22C29.5522 22 30 21.5522 30 21C30 20.4478 29.5522 20 29 20C28.4478 20 28 20.4478 28 21C28 21.5522 28.4478 22 29 22Z" fill="#2764E0"/>
<path d="M34 21C34 21.5522 33.5522 22 33 22C32.4478 22 32 21.5522 32 21C32 20.4478 32.4478 20 33 20C33.5522 20 34 20.4478 34 21Z" fill="#2764E0"/>
<path d="M37 22C37.5522 22 38 21.5522 38 21C38 20.4478 37.5522 20 37 20C36.4478 20 36 20.4478 36 21C36 21.5522 36.4478 22 37 22Z" fill="#2764E0"/>
<path d="M42 21C42 21.5522 41.5522 22 41 22C40.4478 22 40 21.5522 40 21C40 20.4478 40.4478 20 41 20C41.5522 20 42 20.4478 42 21Z" fill="#2764E0"/>
<path d="M45 22C45.5522 22 46 21.5522 46 21C46 20.4478 45.5522 20 45 20C44.4478 20 44 20.4478 44 21C44 21.5522 44.4478 22 45 22Z" fill="#2764E0"/>
<path d="M2 25C2 25.5522 1.55225 26 1 26C0.447754 26 0 25.5522 0 25C0 24.4478 0.447754 24 1 24C1.55225 24 2 24.4478 2 25Z" fill="#2764E0"/>
<path d="M5 26C5.55225 26 6 25.5522 6 25C6 24.4478 5.55225 24 5 24C4.44775 24 4 24.4478 4 25C4 25.5522 4.44775 26 5 26Z" fill="#2764E0"/>
<path d="M10 25C10 25.5522 9.55225 26 9 26C8.44775 26 8 25.5522 8 25C8 24.4478 8.44775 24 9 24C9.55225 24 10 24.4478 10 25Z" fill="#2764E0"/>
<path d="M13 26C13.5522 26 14 25.5522 14 25C14 24.4478 13.5522 24 13 24C12.4478 24 12 24.4478 12 25C12 25.5522 12.4478 26 13 26Z" fill="#2764E0"/>
<path d="M18 25C18 25.5522 17.5522 26 17 26C16.4478 26 16 25.5522 16 25C16 24.4478 16.4478 24 17 24C17.5522 24 18 24.4478 18 25Z" fill="#2764E0"/>
<path d="M21 26C21.5522 26 22 25.5522 22 25C22 24.4478 21.5522 24 21 24C20.4478 24 20 24.4478 20 25C20 25.5522 20.4478 26 21 26Z" fill="#2764E0"/>
<path d="M26 25C26 25.5522 25.5522 26 25 26C24.4478 26 24 25.5522 24 25C24 24.4478 24.4478 24 25 24C25.5522 24 26 24.4478 26 25Z" fill="#2764E0"/>
<path d="M29 26C29.5522 26 30 25.5522 30 25C30 24.4478 29.5522 24 29 24C28.4478 24 28 24.4478 28 25C28 25.5522 28.4478 26 29 26Z" fill="#2764E0"/>
<path d="M34 25C34 25.5522 33.5522 26 33 26C32.4478 26 32 25.5522 32 25C32 24.4478 32.4478 24 33 24C33.5522 24 34 24.4478 34 25Z" fill="#2764E0"/>
<path d="M37 26C37.5522 26 38 25.5522 38 25C38 24.4478 37.5522 24 37 24C36.4478 24 36 24.4478 36 25C36 25.5522 36.4478 26 37 26Z" fill="#2764E0"/>
<path d="M42 25C42 25.5522 41.5522 26 41 26C40.4478 26 40 25.5522 40 25C40 24.4478 40.4478 24 41 24C41.5522 24 42 24.4478 42 25Z" fill="#2764E0"/>
<path d="M45 26C45.5522 26 46 25.5522 46 25C46 24.4478 45.5522 24 45 24C44.4478 24 44 24.4478 44 25C44 25.5522 44.4478 26 45 26Z" fill="#2764E0"/>
</svg>
